PathFileType	4	(X/Y/Z)	Patient4_TMGait_0pt5_02_right_14.trc.trc
DataRate	CameraRate	NumFrames	NumMarkers	Units	OrigDataRate	OrigDataStartFrame	OrigNumFrames
77.777777777778	77.777777777778	5	33	mm	77.777777777778	124	       141
Frame#	Time	Sacral			L.Shoulder			Chest			R.Shoulder			Neck			R.ASIS			L.ASIS			R.Thigh.Superior			R.Thigh.Lateral			R.Thigh.Inferior			R.Patella			L.Thigh.Superior			L.Thigh.Lateral			L.Thigh.Inferior			L.Patella			L.Shank.Superior			L.Shank.Lateral			L.Shank.Inferior			R.Shank.Superior			R.Shank.Lateral			R.Shank.Inferior			R.Heel			R.Midfoot.Superior			R.Midfoot.Lateral			R.Toe			L.Heel			L.Midfoot.Lateral			L.Midfoot.Superior			L.Toe			L.Elbow			L.Wrist			R.Elbow			R.Wrist			
		X1	Y1	Z1	X2	Y2	Z2	X3	Y3	Z3	X4	Y4	Z4	X5	Y5	Z5	X6	Y6	Z6	X7	Y7	Z7	X8	Y8	Z8	X9	Y9	Z9	X10	Y10	Z10	X11	Y11	Z11	X12	Y12	Z12	X13	Y13	Z13	X14	Y14	Z14	X15	Y15	Z15	X16	Y16	Z16	X17	Y17	Z17	X18	Y18	Z18	X19	Y19	Z19	X20	Y20	Z20	X21	Y21	Z21	X22	Y22	Z22	X23	Y23	Z23	X24	Y24	Z24	X25	Y25	Z25	X26	Y26	Z26	X27	Y27	Z27	X28	Y28	Z28	X29	Y29	Z29	X30	Y30	Z30	X31	Y31	Z31	X32	Y32	Z32	X33	Y33	Z33	

124	19.911428571429	590.345128579887	1007.244890950536	479.928294680259	812.117357105416	1429.381098662647	324.773043924850	886.403291413713	1352.644723470658	497.406217375232	783.019367440978	1429.399480715172	659.579275307930	790.264808657642	1487.662769555114	475.441795178504	803.116855027433	934.027593008815	619.651515959826	816.370110036751	951.970237640294	345.265275014724	866.412541792040	753.260985997928	592.235604605832	807.748163877981	634.011349105101	656.637480193004	895.491466277793	591.707291756492	578.752970826125	921.155283559033	510.353061049261	590.843478997498	814.095914773034	724.970742398363	372.735230314130	701.783892738217	632.435239260488	304.802624049355	756.644258861581	538.331142680443	372.852658293032	743.546324232752	470.618890724166	381.373433826736	706.931987540286	406.411161766978	372.358346214508	606.831342869149	304.076112744732	316.455989414527	637.574210128206	188.001375982675	390.353735115545	907.613979518830	422.518751620186	599.272639577679	856.013287203362	306.267274384328	657.734881237611	927.925089658072	223.599260126177	604.814782418302	838.047140364126	40.209569733071	570.241111433043	998.774160270651	112.697880036735	612.740122899181	920.572239492271	38.556278317682	646.139570179113	1123.028303053965	76.030055493457	642.121569894991	492.799468972507	38.943832968061	427.874305342233	568.444645470414	35.219454596834	349.303375022405	652.183987225884	94.828839094438	377.691591187931	780.486712320861	39.939310304825	351.250538548653	872.721688796352	1103.950297666872	163.753504802522	1117.909499187637	1020.077522309490	178.328655669283	612.745737039924	1124.398262943716	746.401145965456	566.961133038309	866.635734591987	746.135515405613	
125	19.924285714286	591.995304471002	1005.758110873260	482.601293230740	812.131477177651	1428.495500979759	327.789876477542	887.018176830537	1352.047136546856	500.312387837932	783.506619174132	1428.221647187788	662.728640624160	790.312969498546	1486.641220450693	478.549923373733	805.156732442504	932.473218987207	621.915597946022	818.210562968427	951.221924163937	347.755847970605	868.671952630834	751.577011692282	594.329844821163	808.217769627419	632.189126466064	657.414938936493	896.473198137744	590.299336665573	580.092527186911	920.788385120977	508.515223506872	591.246017450031	815.009682496232	723.759160103119	374.465000766339	701.945749912209	631.691584347134	306.606176685491	756.277211520365	537.163116904279	374.537949193935	742.870229864799	469.001803957044	382.803482922491	705.115362466935	405.097167283685	373.682566664532	603.487956029844	304.368299939988	317.385137095205	632.476714533008	187.567304754253	390.773399551091	907.058109157568	420.112440827314	599.456673320387	854.326266972134	304.201149578352	657.389280092727	925.229998056388	221.089891885623	604.248758300000	832.539843683187	40.482640019279	569.195017522570	994.730890745100	109.452002737792	611.994099067139	914.567369124088	37.819352023491	645.641108471438	1117.991385349868	69.986648156893	641.954718691048	486.240679879644	39.483852020284	427.667833816326	561.994592573158	35.368480078164	349.254410710068	645.896555272242	94.828139670251	377.642799427640	774.066891548583	39.711495598012	351.184558646511	871.229368873652	1102.217428774834	167.048301021081	1115.637565109925	1015.706907588928	182.108699560678	615.489435846639	1121.636717824061	749.067876662950	571.714609738236	863.367229619943	747.663765942790	
126	19.937142857143	593.623533857827	1004.419692348711	485.373042835010	812.097145464861	1427.781184426455	330.937590530260	887.658705728592	1351.603639447146	503.328055565038	784.012444527380	1427.148544755830	666.034185901906	790.395207931147	1485.785847082932	481.814355018197	807.261792377106	931.117438023066	624.221465163180	819.979592893573	950.636975243450	350.330533189751	871.315192924585	750.304538881702	596.276951567260	809.342483920839	630.792328791552	658.157304317813	898.045750402609	589.368129103103	581.266773122239	921.014142903274	506.923385521091	591.544075128353	816.362549333869	722.764323141262	376.218575554266	702.731764990625	630.913175152526	308.577690729459	756.851085724351	536.059185512755	376.337036678275	743.156540515865	467.281358771877	384.316064032849	704.125745901082	403.695008338710	375.085839587585	600.734087066326	304.854875759343	318.421388623484	627.733786185878	187.246776580157	391.187491838156	906.911385178230	417.952828105649	599.589498422249	852.932467688883	302.554050026627	657.292739729010	922.320796231674	218.736190221126	603.699166294782	826.170611140123	40.929397504129	568.462141600524	989.930925815970	106.352701582579	611.207283968701	907.846408924245	37.223535818785	645.326217022551	1112.281846202498	64.065392012708	641.619915575124	479.746142417102	40.506060665307	427.409621517734	555.594897386390	35.735781418144	349.176419965569	639.797134798173	94.881758702842	377.521892718611	767.671767334004	39.439121841460	351.108005144286	869.308301141688	1100.416406502099	170.626582623476	1112.663490063525	1010.335291918708	185.939320455721	618.991122145979	1118.545144059563	752.054516000524	577.976551404671	859.643935106504	749.621970465849	
127	19.950000000000	595.194651351193	1003.303275151474	488.225797273006	812.062070341374	1427.297040151596	334.189874288493	888.324501258616	1351.348274269744	506.432809762371	784.556240148220	1426.253937146147	669.465766622791	790.547974022124	1485.154360551659	485.205498415251	809.370294091724	930.035269588381	626.579716387291	821.599608021631	950.263039501394	352.971512227204	874.206616775178	749.493021700949	598.048025197496	811.077195147197	629.873672961969	658.904041819712	900.082257784929	588.912196454068	582.255443097806	921.740184551727	505.621050153535	591.775238220615	818.144852928880	722.056849963654	378.021990527067	704.222083937593	630.122151446342	310.710762237407	758.514634337786	535.059856273908	378.231177186183	744.575405053494	465.483042400804	385.860791836519	704.095344184998	402.244918846696	376.535119204865	598.684932980149	305.617820213274	319.558699116586	623.459647566675	187.122965644610	391.577669037438	907.111927843609	416.120210915995	599.711479836445	851.866446497960	301.362408324340	657.477491210448	919.326804828064	216.647833540632	603.200285811685	819.367753879875	41.439776658300	568.026586534178	984.619166180711	103.631451715257	610.434544985414	900.827046811438	36.781567314286	645.184973802226	1106.214735544589	58.758188682288	641.199360744262	473.382998308981	42.200590251077	427.109059665985	549.283521232470	36.438449804336	349.073811373000	633.969177559012	95.027062537366	377.317552881211	761.303840054249	39.125673144802	351.029676814886	866.972876584729	1098.618296617464	174.501696913726	1108.931667432876	1004.000359604043	189.790145037195	623.192049904133	1115.268622111318	755.324199935995	585.702253555270	855.644379037934	752.019755697560	
128	19.962857142857	596.681711906839	1002.464420076075	491.153279468958	812.061810506041	1427.090231378409	337.517888328457	889.008000127103	1351.306481774860	509.600395257866	785.154746124652	1425.601786107611	672.988111767570	790.789816747060	1484.789576805577	488.688402825649	811.430253055608	929.280768423917	629.002348362816	822.997469158641	950.135483436111	355.656570619450	877.198142805956	749.151982772897	599.631577456827	813.320517332794	629.439098727640	659.690612089445	902.417000172302	588.879536857201	583.065460126657	922.825058566991	504.609726301134	591.991982676990	820.336463043300	721.699509460039	379.906194508648	706.491420164694	629.341022921907	312.987753756895	761.400171320639	534.204508906167	380.191461970984	747.283019910032	463.641953452129	387.374735162394	705.147836952085	400.795023133697	377.989714918358	597.458795502782	306.741097391641	320.785492931382	619.778261853252	187.289482447514	391.929514703013	907.532738547170	414.644753667937	599.864405979822	851.051474358386	300.616676380175	657.933198424214	916.286727942059	214.888550756640	602.781641444609	812.438107453633	41.933489174284	567.845907124058	978.967855122155	101.436694805471	609.727250484582	893.792137995445	36.490332364418	645.190712223394	1099.998560494739	54.383127961365	640.774047590562	467.239796613693	44.768569408911	426.784124935759	543.112858326542	37.616135185837	348.956455994878	628.505982309965	95.314378887752	377.027470334079	754.966559366096	38.777606353341	350.962332115200	864.241518013950	1096.897865758597	178.684480844337	1104.363257721340	996.747317656163	193.634608520426	628.025002354633	1111.953218546965	758.839633312559	594.859730575579	851.562552809643	754.855961507735	
